<?xml version="1.0" standalone="no"?>
<!DOCTYPE svg PUBLIC "-//W3C//DTD SVG 20010904//EN"
 "http://www.w3.org/TR/2001/REC-SVG-20010904/DTD/svg10.dtd">
<svg version="1.0" xmlns="http://www.w3.org/2000/svg"
 width="600.000000pt" height="600.000000pt" viewBox="0 0 600.000000 600.000000"
 preserveAspectRatio="xMidYMid meet">
<metadata>
Created by potrace 1.11, written by Peter Selinger 2001-2013
</metadata>
<g transform="translate(0.000000,600.000000) scale(0.100000,-0.100000)"
fill="#000000" stroke="none">
<path d="M2638 5735 c-1 -1 -61 -5 -133 -9 -161 -8 -264 -14 -335 -21 -30 -3
-79 -8 -110 -11 -52 -4 -77 -7 -175 -19 -22 -3 -59 -7 -82 -10 -96 -11 -131
-16 -183 -25 -54 -9 -94 -15 -167 -25 -21 -3 -49 -8 -63 -11 -29 -7 -49 -10
-104 -18 -21 -4 -41 -8 -45 -10 -3 -2 -22 -7 -41 -10 -19 -3 -46 -8 -60 -11
-14 -2 -50 -10 -80 -16 -30 -6 -91 -20 -135 -31 -44 -11 -87 -21 -95 -23 -156
-32 -550 -159 -633 -205 -71 -39 -136 -105 -166 -169 l-26 -56 0 -2060 0
-2060 28 -57 c55 -111 140 -172 332 -237 96 -32 317 -96 405 -116 203 -48 289
-68 305 -71 46 -8 74 -13 145 -27 80 -16 142 -28 175 -32 11 -2 79 -12 150
-24 156 -24 227 -33 345 -46 30 -3 66 -8 80 -10 29 -5 99 -11 220 -21 47 -3
101 -8 120 -10 255 -26 1111 -26 1415 1 22 2 78 6 125 10 47 3 105 8 130 11
78 8 123 13 190 20 36 3 73 8 84 10 10 2 44 6 75 10 31 3 65 8 76 10 10 2 37
6 60 9 38 6 113 18 180 30 17 3 70 12 120 21 49 8 92 17 95 19 3 2 21 6 40 9
49 8 253 53 304 68 22 6 48 13 56 14 34 7 262 75 356 107 203 69 301 138 353
247 l26 55 0 2060 0 2060 -27 55 c-36 74 -104 140 -182 178 -63 31 -277 106
-393 138 -152 42 -456 116 -528 129 -38 6 -190 36 -235 45 -25 5 -61 12 -80
15 -19 2 -46 7 -60 9 -14 3 -61 10 -105 16 -44 6 -91 13 -105 15 -35 5 -118
16 -160 20 -19 2 -53 6 -75 9 -64 9 -207 21 -360 32 -55 3 -120 8 -145 10 -55
5 -897 14 -902 9z"/>
</g>
</svg>
