<svg id="Layer_1" data-name="Layer 1" xmlns="http://www.w3.org/2000/svg" viewBox="0 0 209.84 160.6"><defs><style>.cls-1{fill:#0b2040;}</style></defs><title>Easybank_Logo_v2_MorkBlaa</title><path class="cls-1" d="M57.42,150.2A2.25,2.25,0,0,1,55.64,148a3.92,3.92,0,0,1,.1-.7,2.09,2.09,0,0,1,2.16-1.62,5.45,5.45,0,0,1,.92.11A27.18,27.18,0,0,0,66.26,147c4.26,0,5.61-1.68,5.61-3.83,0-2-1.35-3-6-3.88-6.74-1.3-10-3.89-10-8.79a7.34,7.34,0,0,1,2.8-5.94c1.83-1.45,4.48-2.21,7.87-2.21a25.12,25.12,0,0,1,6.69.87,2.2,2.2,0,0,1,1.78,2.21c0,.16-.06.37-.06.59a2.12,2.12,0,0,1-2.21,1.73,2.32,2.32,0,0,1-.86-.11,20.16,20.16,0,0,0-5.34-.81c-3.88,0-5.71,1.19-5.71,3.56,0,2.1,2.05,3.29,6,4,6.58,1.24,10,3.51,10,8.63,0,4-2.81,8.41-10.57,8.41A33.24,33.24,0,0,1,57.42,150.2Z"/><path class="cls-1" d="M103.2,124.57a2.38,2.38,0,0,1-.16.86l-8.57,24.62c-1.82,5.25-4.33,10.44-11.61,10.55H82.7a2.13,2.13,0,0,1-2.36-2.2v-.16c0-1.18.7-2,2.36-2.14,3.26-.16,4.87-1.18,7.06-7.44l.16-.43a7.32,7.32,0,0,1-3.42-3.69v-.06l-8-18.89a2.17,2.17,0,0,1-.22-1,2.24,2.24,0,0,1,2.47-2.14A2.58,2.58,0,0,1,83.18,124l7.65,18c.49,1.07.54,1.24.65,1.24s.1-.17.37-.75l.05-.06,6.32-18.15a2.56,2.56,0,0,1,2.68-1.87A2.18,2.18,0,0,1,103.2,124.57Z"/><path class="cls-1" d="M129.94,136.76a40.31,40.31,0,0,1-.26,5.41c-.8,5.68-5.18,9.05-11.69,9.05s-10.94-3.37-11.74-9.05a37.63,37.63,0,0,1-.26-5.41V116.29a2.47,2.47,0,0,1,4.87,0v7.56a21.87,21.87,0,0,1,7.35-1.55c6.4,0,10.68,3.37,11.48,9A40.49,40.49,0,0,1,129.94,136.76Zm-4.86,0a36.26,36.26,0,0,0-.21-4.82c-.48-3.43-2.81-5.19-6.88-5.19a26.56,26.56,0,0,0-7.14,1.39v8.62a43.15,43.15,0,0,0,.21,4.82c.48,3.43,2.81,5.2,6.93,5.2s6.4-1.77,6.88-5.2A36.11,36.11,0,0,0,125.08,136.76Z"/><path class="cls-1" d="M177.84,149.41V135.27c0-3.73-.49-5.51-1.73-6.64a9.21,9.21,0,0,0-10.58,0c-1.29,1.13-1.73,2.91-1.73,6.64v14.14a2.53,2.53,0,0,1-5,0V135.27c0-4.26.54-7.4,3.13-9.83a12.9,12.9,0,0,1,8.85-3c3.67,0,6.7,1,8.8,3,2.65,2.43,3.19,5.57,3.19,9.83v14.14a2.25,2.25,0,0,1-2.49,2.05A2.21,2.21,0,0,1,177.84,149.41Z"/><path class="cls-1" d="M209.84,149.09a2.32,2.32,0,0,1-2.54,2.22,2.87,2.87,0,0,1-2.15-.87l-9.89-10.69c-1.19-1.3-1.24-1.46-2.11-1.46h-2.27v11a2.53,2.53,0,0,1-5,0V116.32a2.53,2.53,0,0,1,5,0v17.49h2.06c.75,0,1.19-.33,2.54-1.62l8.85-8.81a3,3,0,0,1,2.27-.91,2.28,2.28,0,0,1,2.54,2.16,2.22,2.22,0,0,1-.75,1.67l-7.78,7.78A14.7,14.7,0,0,1,198,136a13,13,0,0,1,2.7,2.27l8.59,9.29A2.3,2.3,0,0,1,209.84,149.09Z"/><path class="cls-1" d="M24.4,142.9a3.26,3.26,0,0,0-1.45.39c-3.2,1.58-5.73,2.43-8.33,2.43-4.71,0-7.24-1.77-8.21-6.05a25.51,25.51,0,0,1-.23-12c.84-4.6,3.73-6.53,8.44-6.53s7.31,2.16,7.85,6.36a10.23,10.23,0,0,1,.06,1.25c0,1.25,0,1.85-1.09,2.13,0,0-8.85,1.45-10.94,2A2.19,2.19,0,0,0,9,135.69s.14,1.94,2.56,1.7,9.22-1.3,9.22-1.3c4.14-.33,7.3-1.86,7.36-7.1a14.51,14.51,0,0,0-.18-2.17c-.91-7-5.92-11.09-13.35-11.09S1.91,120.41.7,127.32a29.41,29.41,0,0,0-.7,6.12A29.8,29.8,0,0,0,.73,140c1.38,6.8,6.4,11.22,13.89,11.22a24.14,24.14,0,0,0,10.87-2.89A2.74,2.74,0,0,0,27,145.79a3.78,3.78,0,0,0-.3-1.32A2.36,2.36,0,0,0,24.4,142.9Z"/><path class="cls-1" d="M50,125.38a12.67,12.67,0,0,0-8.78-3,29.69,29.69,0,0,0-8.73,1.13,2.19,2.19,0,0,0-1.78,2.16,4.57,4.57,0,0,0,.1.75,2.28,2.28,0,0,0,2.32,1.62,3,3,0,0,0,.76-.11,24.28,24.28,0,0,1,7.33-1.08c2.32,0,4.09.54,5.23,1.67,1,.81,1.45,2,1.61,4,0,.41.12,4,.11,4.2v1.94c0,3.72-.43,5.5-1.72,6.63S43.53,147,41.21,147c-4,0-6.31-1.18-7.06-3.55a5.81,5.81,0,0,1-.22-1.78,6.45,6.45,0,0,1,.22-1.84c.37-1.13,1.08-3.61,7.06-3.61.18,0,1.4,0,1.91.06a3.34,3.34,0,0,0,.76,0,2.28,2.28,0,0,0,2-2,4.41,4.41,0,0,0,0-.76c-.21-1.06-2.05-1.47-3.16-1.52h0a13.61,13.61,0,0,0-1.55-.07c-6.47,0-10.35,2.26-11.7,6.79a10.79,10.79,0,0,0,0,6c.6,2.05,3,6.8,11.81,6.8a12.72,12.72,0,0,0,8.78-3c2.65-2.42,3.13-5.55,3.13-9.81v-3.56C53.12,130.93,52.64,127.8,50,125.38Z"/><path class="cls-1" d="M153,125.24a12.77,12.77,0,0,0-8.79-3,29.41,29.41,0,0,0-8.73,1.14,2.18,2.18,0,0,0-1.78,2.15,3.76,3.76,0,0,0,.11.76,2.27,2.27,0,0,0,2.32,1.61,3.49,3.49,0,0,0,.75-.1,24,24,0,0,1,7.33-1.08c2.32,0,4.1.54,5.23,1.67,1,.81,1.45,2,1.62,4,0,.42.11,4,.1,4.21v1.94c0,3.71-.43,5.49-1.72,6.63-1.13,1.13-2.91,1.67-5.23,1.67-4,0-6.31-1.19-7.06-3.56a5.81,5.81,0,0,1-.22-1.78,6.38,6.38,0,0,1,.22-1.83c.38-1.13,1.08-3.61,7.06-3.61.18,0,1.41,0,1.91.05a2.86,2.86,0,0,0,.76,0,2.26,2.26,0,0,0,2-2,4.47,4.47,0,0,0,0-.76c-.21-1.06-2-1.46-3.15-1.52h0a13.8,13.8,0,0,0-1.56-.07c-6.47,0-10.35,2.26-11.69,6.79a10.82,10.82,0,0,0,0,6c.59,2,3,6.79,11.8,6.79a12.76,12.76,0,0,0,8.79-3c2.64-2.43,3.12-5.56,3.12-9.81v-3.56C156.09,130.79,155.61,127.66,153,125.24Z"/><path class="cls-1" d="M76,68.82a78.47,78.47,0,0,1-4.8-16.12c-1.23-6.8-1-10.62-1-15.77-.06-12.23,5-22.7,14.21-29.24C54.21,20.26,35.78,45.25,42.45,66.32c6.23,19.67,32.32,29.52,61.73,25C91.13,89.84,81.14,81.63,76,68.82Z"/><path class="cls-1" d="M169.51,26.07C163.51,7.12,139.08-2.72,111,.66c13.37,1,23.46,8.92,27.8,22.55a35.16,35.16,0,0,1,1.44,5.39c2.26,13.26-5,18.59-15.34,21.3,0,0-16.67,5.81-22.68,7.5S95,54.26,95,54.26,92.45,49,97.49,46.6s26.71-10,26.71-10c2.57-1.2,2.35-2.74,1.78-5.89a25.87,25.87,0,0,0-.72-3.12c-3.29-10.36-11-14.62-22.73-12.5C90.63,17.2,84,25.19,84.2,35.4c-.06,12.83,1.65,19.9,6,30.1,4.42,10.36,11.61,13.69,23.5,11.54,6.56-1.19,12.58-4.5,19.94-9.94a8.33,8.33,0,0,1,3.48-1.66,6.09,6.09,0,0,1,6.52,2.93A9.77,9.77,0,0,1,145,71.55a7.24,7.24,0,0,1-.35,3.89C164.31,62,174.81,42.77,169.51,26.07Z"/></svg>