<?xml version="1.0" encoding="utf-8"?>
<!-- Generator: Adobe Illustrator 24.0.3, SVG Export Plug-In . SVG Version: 6.00 Build 0)  -->
<svg version="1.1" id="Lager_1" xmlns="http://www.w3.org/2000/svg" xmlns:xlink="http://www.w3.org/1999/xlink" x="0px" y="0px"
	 viewBox="0 0 420.94 297.64" style="enable-background:new 0 0 420.94 297.64;" xml:space="preserve">
<style type="text/css">
	.st0{fill:#FFFFFF;}
	.st1{fill:#FDC300;}
	.st2{fill:#1A171B;}
</style>
<g>
	<path class="st0" d="M210.47,231.6c-46.9,0-78.98-11.23-81.63-12.19c-3.47-1.14-9.1-4.06-9.1-10.99V89.54
		c0-3.62,1.57-8.45,9.02-10.96c2.9-1.11,34.07-12.54,81.71-12.54c47.63,0,78.79,11.43,81.71,12.54c7.45,2.51,9.03,7.34,9.03,10.96
		v118.89c0,5.13-3,8.81-8.92,10.92C289.58,220.42,260.08,231.6,210.47,231.6z"/>
	<g>
		<path class="st1" d="M296.05,209.7c0,2.5-1.71,3.54-4.52,4.52c0,0-29.77,12.06-81.06,12.06c-48.27,0-81.06-12.06-81.06-12.06
			c-2.62-0.84-4.52-2.03-4.52-4.52V88.27c0-2.5,1.86-3.65,4.52-4.52c0,0,31.78-12.39,81.06-12.39c49.28,0,81.06,12.39,81.06,12.39
			c2.66,0.87,4.52,2.03,4.52,4.52V209.7z"/>
	</g>
	<g>
		<path class="st0" d="M147.54,180.45h14.54v4.27h-8.8v4.39h8.54v4.27h-8.54v7.9h-5.73V180.45z"/>
		<path class="st0" d="M167.96,180.45h5.73v20.82h-5.73V180.45z"/>
		<path class="st0" d="M180.36,180.45h7.16l5.12,10.15c0.64,1.26,1.32,2.84,1.81,4.47h0.26c-0.18-0.96-0.26-2.48-0.26-4.42v-10.21
			h5.32v20.82h-7.19l-5.35-10.59c-0.79-1.55-1.37-3.31-1.49-4.04h-0.2c0.06,1.08,0.15,1.99,0.15,3.22v11.41h-5.32V180.45z"/>
		<path class="st0" d="M226.67,201.28h-6.03l-1.26-4.27h-7.75l-1.38,4.27h-5.73l7.63-20.82h7.22L226.67,201.28z M218.1,192.91
			l-1.58-4.88c-0.41-1.26-0.73-2.52-0.85-3.31h-0.12c-0.2,1.14-0.61,2.43-0.91,3.31l-1.64,4.88H218.1z"/>
		<path class="st0" d="M231.41,180.45h7.16l5.12,10.15c0.64,1.26,1.32,2.84,1.81,4.47h0.26c-0.17-0.96-0.26-2.48-0.26-4.42v-10.21
			h5.32v20.82h-7.19l-5.35-10.59c-0.79-1.55-1.38-3.31-1.49-4.04h-0.21c0.06,1.08,0.15,1.99,0.15,3.22v11.41h-5.32V180.45z"/>
		<path class="st0" d="M261.55,194.64c0.06,0.79,0.76,2.95,3.36,2.95c1.7,0,2.87-0.7,2.87-1.99c0-1.17-0.67-1.61-2.81-2.34
			l-3.45-1.2c-2.63-0.96-4.77-2.69-4.77-5.59c0-4.39,3.92-6.52,8.8-6.52c6.03,0,6.96,3.48,7.37,4.65l-5.03,1.67
			c-0.12-0.67-0.82-2.23-2.78-2.23c-1.9,0-2.75,0.79-2.75,1.82c0,1.2,0.61,1.52,2.81,2.31l3.8,1.4c2.78,1.02,4.42,2.57,4.42,5.38
			c0,3.1-2.08,6.82-8.83,6.82c-6.32,0-7.58-3.89-8.02-5.21L261.55,194.64z"/>
	</g>
	<g>
		<g>
			<path class="st2" d="M146.15,121.61c2.6-7.8,8.6-14.6,20-14.6c15,0,18.7,10.4,18.7,20.2v25.3c0,5.3,0.3,13.2,0.4,14.4h-5.8
				l-0.4-9.4c-4.7,5.2-10.2,10.6-19.3,10.6c-10.4,0-16.4-7.1-16.4-16.4c0-17.9,16.4-20.1,31.6-20.1h4.1
				c-0.3-10.5-0.6-19.4-13.6-19.4c-9.1,0-11.9,6.4-14.1,11.1L146.15,121.61z M179.06,136.41h-3.9c-14.7,0-25.6,1.9-25.6,14.6
				c0,8.7,5.9,11.5,11.2,11.5c7.2,0,11.2-4,18.3-10.9V136.41z"/>
			<path class="st2" d="M189.25,108.21h7.1l14.6,23.4l15.6-23.4h6.6l-18.4,27.6l19.9,31.1h-7.2l-16.5-26.4l-17.1,26.4h-7.1
				l20.3-30.8L189.25,108.21z"/>
			<path class="st2" d="M254.56,107.01c19.5,0,23.8,18.9,23.8,30.8c0,14.8-6.8,30.3-23.8,30.3c-17,0-23.8-15.5-23.8-30.3
				C230.75,125.91,235.05,107.01,254.56,107.01z M254.56,162.91c10.8,0,17.6-8.9,17.6-26.4c0-12-4.8-24.3-17.6-24.3
				c-12.8,0-17.6,12.3-17.6,24.3C236.96,154.01,243.75,162.91,254.56,162.91z"/>
		</g>
		<g>
			<path class="st2" d="M274.69,110.71c0-2.36,1.86-3.72,3.86-3.72c1.99,0,3.86,1.36,3.86,3.72c0,2.36-1.87,3.72-3.86,3.72
				C276.55,114.42,274.69,113.06,274.69,110.71z M281.16,110.71c0-1.63-1.2-2.77-2.61-2.77c-1.44,0-2.61,1.14-2.61,2.77
				c0,1.63,1.17,2.77,2.61,2.77C279.96,113.48,281.16,112.34,281.16,110.71z M278.01,112.72h-0.98v-4.03h1.51
				c1.06,0,1.71,0.27,1.71,1.23c0,0.75-0.45,1.03-1.15,1.06l1.03,1.74h-0.95l-0.92-1.68h-0.25V112.72z M278.72,110.33
				c0.35,0,0.55-0.09,0.55-0.51c0-0.39-0.45-0.42-0.75-0.42h-0.51v0.93H278.72z"/>
		</g>
	</g>
</g>
</svg>
